<svg width="99" height="46" viewBox="0 0 99 46" fill="none" xmlns="http://www.w3.org/2000/svg">
<g clip-path="url(#clip0_4275_9034)">
<path d="M7.74132 12.0922L6.92714 11.1934C5.93159 12.8983 5.36328 14.8753 5.36328 16.8845H5.92353C5.92555 15.0043 6.58051 13.2953 7.74132 12.0922Z" fill="url(#paint0_linear_4275_9034)"/>
<path d="M7.60012 20.9092C6.58039 19.9439 5.92744 18.638 5.92744 16.8948V16.8867H5.36719C5.36719 18.9302 5.73195 20.8306 6.45141 22.4872L7.60012 20.9112V20.9092Z" fill="url(#paint1_linear_4275_9034)"/>
<path d="M25.4599 15.4336L24.418 16.5098C25.8609 16.5319 26.7497 17.6444 26.7174 19.0672H27.2777C27.2777 17.6645 26.6207 16.3888 25.4599 15.4336Z" fill="url(#paint2_linear_4275_9034)"/>
<path d="M27.2755 19.0674H26.7153C26.687 20.2383 26.0623 21.2197 24.6758 21.9492L26.1389 23.9665C26.8543 22.6465 27.2755 21.0283 27.2755 19.0694V19.0674Z" fill="url(#paint3_linear_4275_9034)"/>
<path d="M8.3281 15.2463C8.28779 15.462 8.26562 15.6857 8.26562 15.9174C8.26562 19.2689 10.7626 21.4091 13.9165 21.4091C19.912 21.4091 21.6894 16.5119 24.3738 16.5119C24.3859 16.5119 24.4 16.5119 24.4161 16.5119L25.458 15.4358C24.1642 14.3697 22.2416 13.7026 19.91 13.7026C15.164 13.7026 12.6368 17.6667 10.4824 17.6667C9.54533 17.6667 8.82789 16.6369 8.82789 15.6393C8.82789 15.5345 8.83595 15.4358 8.84603 15.337L8.3281 15.2484V15.2463Z" fill="url(#paint4_linear_4275_9034)"/>
<path d="M12.0444 10.331C15.5086 10.331 17.9129 12.9509 21.0043 12.9509C24.7104 12.9509 26.762 11.1452 27.2779 7.61643L26.7177 7.52372C26.5605 8.45882 25.9519 9.58133 24.8596 9.58133C23.8298 9.58133 22.7375 8.67647 21.1474 7.80385C19.5553 6.89899 17.7275 6.02637 15.4502 6.02637C11.7844 6.02637 8.69092 8.18474 6.93359 11.1936L7.74777 12.0924C8.79975 11.0021 10.2689 10.331 12.0484 10.331H12.0444Z" fill="url(#paint5_linear_4275_9034)"/>
<path d="M15.6651 23.3739C12.9828 23.3739 9.59105 22.7915 7.59793 20.9092L6.44922 22.4851C8.10175 26.288 11.6285 28.8031 16.9146 28.8031C20.4071 28.8031 24.2724 27.4206 26.1406 23.9664L24.6775 21.9491C22.9564 22.8559 20.0584 23.3739 15.6671 23.3739H15.6651Z" fill="url(#paint6_linear_4275_9034)"/>
<path d="M4.90446 39.9737C2.53448 39.9737 1.22656 38.4159 1.22656 36.1104C1.22656 33.805 2.64331 32.229 4.94678 32.229C5.86777 32.229 6.63559 32.4446 7.2301 32.7812L6.98222 34.3934C6.41996 34.0347 5.75894 33.7546 4.99313 33.7546C3.70537 33.7546 3.07861 34.7058 3.07861 36.1024C3.07861 37.499 3.72552 38.4925 5.01329 38.4925C5.4244 38.4925 5.71864 38.4179 6.01891 38.2547V36.9246H4.72107L4.50543 35.5522H7.63114V39.1858C6.85123 39.6936 5.93226 39.9758 4.90446 39.9758V39.9737Z" fill="#0068B7"/>
<path d="M11.1761 39.9197C10.1705 39.9197 9.32806 39.702 8.57031 39.3574L8.84036 37.7774C9.60819 38.1885 10.4627 38.4707 11.2103 38.4707C11.7404 38.4707 12.1092 38.245 12.1092 37.7996C12.1092 37.3542 11.8915 37.1829 10.8415 36.7819C9.35023 36.2095 8.70131 35.7218 8.70131 34.4885C8.70131 33.0516 9.82584 32.2817 11.2527 32.2817C12.226 32.2817 12.8528 32.4651 13.5037 32.7795L13.2216 34.3373C12.5505 33.9484 11.8492 33.7327 11.2768 33.7327C10.7045 33.7327 10.4425 33.9685 10.4425 34.3152C10.4425 34.6961 10.6481 34.8794 11.5771 35.2361C13.1994 35.8307 13.8483 36.3929 13.8483 37.584C13.8483 39.2063 12.6573 39.9197 11.1761 39.9197Z" fill="#0068B7"/>
<path d="M16.6914 39.8165V32.3721H20.5749V33.0411H17.435V35.5885H19.9179L20.0267 36.2575H17.4371V39.1495H20.6857V39.8186H16.6934L16.6914 39.8165Z" fill="#898788"/>
<path d="M23.8016 36.6767H22.8725V39.8165H22.1289V32.3721H23.9749C25.4743 32.3721 26.4134 33.1278 26.4134 34.466C26.4134 35.9331 25.3231 36.6787 23.8016 36.6787V36.6767ZM23.9205 33.0291H22.8725V36.0177H23.8338C24.9664 36.0177 25.6577 35.522 25.6577 34.4861C25.6577 33.5248 25.0551 33.0291 23.9205 33.0291Z" fill="#898788"/>
<path d="M29.2328 39.9035C28.4025 39.9035 27.7334 39.6979 27.2578 39.44L27.3666 38.6842C27.8201 38.9765 28.5093 39.2445 29.265 39.2445C30.1397 39.2445 30.7967 38.7487 30.7967 37.9063C30.7967 37.1728 30.4299 36.806 29.2973 36.3082C27.8725 35.6815 27.3545 35.2079 27.3545 34.1498C27.3545 33.0273 28.2614 32.2837 29.4908 32.2837C30.1921 32.2837 30.7422 32.4449 31.1312 32.6726L31.0224 33.4163C30.6012 33.1362 30.0832 32.9407 29.4585 32.9407C28.5839 32.9407 28.0982 33.4586 28.0982 34.1055C28.0982 34.7847 28.4549 35.1091 29.5976 35.617C30.978 36.2216 31.5403 36.7617 31.5403 37.8499C31.5403 39.1236 30.5367 39.8995 29.2308 39.8995L29.2328 39.9035Z" fill="#898788"/>
</g>
<path d="M45.1462 19.1982L37.543 26.8014" stroke="#CFD0D0" stroke-width="1.188" stroke-linecap="round"/>
<path d="M37.5452 19.1982L45.1484 26.8014" stroke="#CFD0D0" stroke-width="1.188" stroke-linecap="round"/>
<path d="M97.4832 22.9346H91.3242V32.0903H97.4832V22.9346Z" fill="url(#paint7_linear_4275_9034)"/>
<path fill-rule="evenodd" clip-rule="evenodd" d="M91.3249 22.8309V32.0888C80.2754 31.6043 79.7451 14.3632 91.2808 13.1416C91.2808 13.1406 91.3033 21.7774 91.3249 22.8309Z" fill="url(#paint8_linear_4275_9034)"/>
<path fill-rule="evenodd" clip-rule="evenodd" d="M79.525 32.3182H66.1445L72.6319 21.5654L79.525 32.3182Z" fill="url(#paint9_linear_4275_9034)"/>
<path fill-rule="evenodd" clip-rule="evenodd" d="M77.2532 28.7577C86.1803 22.3312 77.3786 8.62123 67.8594 14.1141L77.2532 28.7577Z" fill="url(#paint10_linear_4275_9034)"/>
<path d="M58.3043 33.1857C62.2564 33.1857 65.4602 29.9736 65.4602 26.0113C65.4602 22.049 62.2564 18.8369 58.3043 18.8369C54.3522 18.8369 51.1484 22.049 51.1484 26.0113C51.1484 29.9736 54.3522 33.1857 58.3043 33.1857Z" fill="url(#paint11_linear_4275_9034)"/>
<path fill-rule="evenodd" clip-rule="evenodd" d="M58.4847 18.8449V25.9544L51.1523 26.0202L51.2494 12.8302L65.0455 12.8145L64.9984 18.895L58.4847 18.8449Z" fill="url(#paint12_linear_4275_9034)"/>
<defs>
<linearGradient id="paint0_linear_4275_9034" x1="8.0678" y1="12.3985" x2="4.74056" y2="15.7237" gradientUnits="userSpaceOnUse">
<stop stop-color="#FABE00"/>
<stop offset="1" stop-color="#C8C400"/>
</linearGradient>
<linearGradient id="paint1_linear_4275_9034" x1="4.65579" y1="18.1523" x2="7.50541" y2="21.0039" gradientUnits="userSpaceOnUse">
<stop stop-color="#C8C400"/>
<stop offset="1" stop-color="#7FBE26"/>
</linearGradient>
<linearGradient id="paint2_linear_4275_9034" x1="24.8835" y1="16.0301" x2="27.3079" y2="18.4545" gradientUnits="userSpaceOnUse">
<stop stop-color="#7ECEF4"/>
<stop offset="1" stop-color="#00B3C4"/>
</linearGradient>
<linearGradient id="paint3_linear_4275_9034" x1="27.7874" y1="20.1577" x2="25.3368" y2="22.6062" gradientUnits="userSpaceOnUse">
<stop stop-color="#00B3C4"/>
<stop offset="1" stop-color="#009E96"/>
</linearGradient>
<linearGradient id="paint4_linear_4275_9034" x1="9.47278" y1="17.5559" x2="24.3738" y2="17.5559" gradientUnits="userSpaceOnUse">
<stop stop-color="#0068B7"/>
<stop offset="1" stop-color="#7ECEF4"/>
</linearGradient>
<linearGradient id="paint5_linear_4275_9034" x1="6.92755" y1="9.49064" x2="27.2759" y2="9.49064" gradientUnits="userSpaceOnUse">
<stop stop-color="#FABE00"/>
<stop offset="0.63" stop-color="#F08000"/>
<stop offset="1" stop-color="#EB6100"/>
</linearGradient>
<linearGradient id="paint6_linear_4275_9034" x1="7.59995" y1="24.8571" x2="24.6775" y2="24.8571" gradientUnits="userSpaceOnUse">
<stop stop-color="#7FBE26"/>
<stop offset="1" stop-color="#009E96"/>
</linearGradient>
<linearGradient id="paint7_linear_4275_9034" x1="94.4037" y1="32.0903" x2="94.4037" y2="22.9346" gradientUnits="userSpaceOnUse">
<stop stop-color="#53ADE1"/>
<stop offset="1" stop-color="#337EC2"/>
</linearGradient>
<linearGradient id="paint8_linear_4275_9034" x1="87.0719" y1="13.1741" x2="87.0719" y2="32.1214" gradientUnits="userSpaceOnUse">
<stop stop-color="#FF674C"/>
<stop offset="0.27" stop-color="#FF6E4D"/>
<stop offset="0.66" stop-color="#FF8250"/>
<stop offset="1" stop-color="#FF9953"/>
</linearGradient>
<linearGradient id="paint9_linear_4275_9034" x1="123.413" y1="108.878" x2="123.413" y2="21.5654" gradientUnits="userSpaceOnUse">
<stop stop-color="#FFDF5D"/>
<stop offset="1" stop-color="#FFB607"/>
</linearGradient>
<linearGradient id="paint10_linear_4275_9034" x1="67.7309" y1="21.0055" x2="80.8896" y2="21.1367" gradientUnits="userSpaceOnUse">
<stop stop-color="#00CFB5"/>
<stop offset="0.21" stop-color="#07D0B1"/>
<stop offset="0.53" stop-color="#1BD1A7"/>
<stop offset="0.9" stop-color="#3BD397"/>
<stop offset="1" stop-color="#45D492"/>
</linearGradient>
<linearGradient id="paint11_linear_4275_9034" x1="114.263" y1="71.9273" x2="114.263" y2="198.483" gradientUnits="userSpaceOnUse">
<stop stop-color="#FF674C"/>
<stop offset="0.27" stop-color="#FF6E4D"/>
<stop offset="0.66" stop-color="#FF8250"/>
<stop offset="1" stop-color="#FF9953"/>
</linearGradient>
<linearGradient id="paint12_linear_4275_9034" x1="110.615" y1="120.045" x2="110.615" y2="12.8145" gradientUnits="userSpaceOnUse">
<stop stop-color="#FFDF5D"/>
<stop offset="1" stop-color="#FFB607"/>
</linearGradient>
<clipPath id="clip0_4275_9034">
<rect width="30.318" height="33.9475" fill="white" transform="translate(1.22656 6.02637)"/>
</clipPath>
</defs>
</svg>
